<?xml version="1.0" encoding="utf-8"?>
<!-- Generator: Adobe Illustrator 17.0.0, SVG Export Plug-In . SVG Version: 6.00 Build 0)  -->
<!DOCTYPE svg PUBLIC "-//W3C//DTD SVG 1.1//EN" "http://www.w3.org/Graphics/SVG/1.1/DTD/svg11.dtd">
<svg version="1.1" id="Layer_1" xmlns="http://www.w3.org/2000/svg" xmlns:xlink="http://www.w3.org/1999/xlink" x="0px" y="0px"
	 width="252px" height="144px" viewBox="0 0 252 144" enable-background="new 0 0 252 144" xml:space="preserve">
<path fill="#2A2A2A" d="M128.208,115.277h-4.8c-9.893,0-42.59-1.075-47.995-14.832c-0.245-0.619-0.216-1.32,0.082-1.93
	c0,0,19.939-40.632,22.085-45.034c1.925-3.95,8.347-9.744,10.982-12.019c-0.778-4.8-3.442-21.211-4.536-30.024
	c-0.096-0.754,0.173-1.502,0.72-2.026c4.886-4.685,11.237-9.485,21.254-9.485c10.013,0,16.373,4.8,21.254,9.485
	c0.542,0.523,0.806,1.277,0.72,2.026c-1.099,8.813-3.758,25.229-4.536,30.019c2.635,2.275,9.058,8.069,10.978,12.019
	c2.141,4.402,22.09,45.034,22.09,45.034c0.302,0.61,0.326,1.301,0.091,1.93C172.286,111.374,148.781,115.277,128.208,115.277z
	 M80.314,99.581c3.835,6.552,20.818,10.896,43.094,10.896h4.8c22.128,0,39.61-4.435,43.469-10.901
	c-3.149-6.403-19.646-40.013-21.581-44.002c-1.565-3.226-8.314-9.274-10.79-11.328c-0.648-0.542-0.97-1.397-0.826-2.232
	c0.038-0.202,3.206-19.382,4.574-29.962C137.39,6.864,132.374,4.728,126,4.728c-6.379,0-11.39,2.136-17.054,7.325
	c1.373,10.579,4.541,29.76,4.574,29.962c0.139,0.84-0.178,1.69-0.83,2.232c-2.472,2.059-9.216,8.102-10.79,11.328
	C99.96,59.563,83.453,93.187,80.314,99.581L80.314,99.581z"/>
<path fill="#2A2A2A" d="M152.501,99.01L152.501,99.01L152.501,99.01c0-0.005-0.072-0.298-0.173-0.715
	c-1.632-6.696-10.872-44.342-10.872-44.342l0,0c-0.317-1.282-1.627-2.083-2.894-1.762c-1.296,0.312-2.083,1.613-1.771,2.899
	c1.07,4.406,11.045,45.053,11.045,45.053h0.005c0.322,1.291,1.632,2.083,2.894,1.762C152.026,101.597,152.813,100.296,152.501,99.01
	z"/>
<path fill="#2A2A2A" d="M125.808,103.277c-1.325,0-2.4-1.08-2.4-2.4v-48c0-1.325,1.075-2.4,2.4-2.4c1.325,0,2.4,1.075,2.4,2.4v48
	C128.208,102.197,127.133,103.277,125.808,103.277z"/>
<path fill="#2A2A2A" d="M115.205,55.094c0.312-1.286-0.475-2.587-1.766-2.899c-1.291-0.322-2.587,0.48-2.899,1.766
	c-0.173,0.701-0.586,2.395-1.128,4.622c-2.15,8.774-6.802,27.749-8.918,36.37c-0.614,2.501-0.998,4.056-0.998,4.056
	c-0.312,1.286,0.475,2.587,1.766,2.899c1.291,0.326,2.587-0.48,2.899-1.762c0.202-0.83,0.72-2.947,1.426-5.837
	c2.146-8.75,6.168-25.152,8.299-33.854C114.686,57.216,115.205,55.094,115.205,55.094z"/>
<path fill="#2A2A2A" d="M137.813,43.272h-24c-1.325,0-2.4-1.075-2.4-2.4c0-1.325,1.075-2.4,2.4-2.4h24c1.32,0,2.4,1.075,2.4,2.4
	C140.213,42.197,139.133,43.272,137.813,43.272z"/>
</svg>
