<?xml version="1.0" encoding="utf-8"?>
<!-- Generator: Adobe Illustrator 17.0.0, SVG Export Plug-In . SVG Version: 6.00 Build 0)  -->
<!DOCTYPE svg PUBLIC "-//W3C//DTD SVG 1.1//EN" "http://www.w3.org/Graphics/SVG/1.1/DTD/svg11.dtd">
<svg version="1.1" id="Layer_1" xmlns="http://www.w3.org/2000/svg" xmlns:xlink="http://www.w3.org/1999/xlink" x="0px" y="0px"
	 width="252px" height="144px" viewBox="0 0 252 144" enable-background="new 0 0 252 144" xml:space="preserve">
<path fill="#FFFFFF" d="M161.976,115.2c-0.019,0-0.058,0-0.101,0h-24c-1.176,0-2.189-0.864-2.366-2.03l-9.552-61.142L116.4,113.17
	c-0.178,1.166-1.181,2.03-2.366,2.03h-24c-0.686,0-1.339-0.302-1.8-0.806c-0.456-0.514-0.667-1.2-0.586-1.886l13.598-110.4
	c0.149-1.2,1.171-2.107,2.381-2.107h44.654c1.214,0,2.232,0.902,2.381,2.107l13.517,109.747c0.12,0.293,0.187,0.61,0.187,0.946
	C164.376,114.12,163.306,115.2,161.976,115.2z M139.934,110.4h19.229L146.16,4.8h-40.406L92.746,110.4h19.234l11.549-73.92
	l-0.019-0.11c-0.106-0.691,0.091-1.397,0.542-1.93c0.912-1.066,2.808-1.066,3.72,0c0.456,0.533,0.73,1.238,0.624,1.93l-0.01,0.11
	C128.386,36.48,139.934,110.4,139.934,110.4z"/>
<path fill="#FFFFFF" d="M126.034,40.8c-1.32,0-2.4-1.075-2.4-2.4V24c0-1.325,1.08-2.4,2.4-2.4c1.325,0,2.4,1.075,2.4,2.4v14.4
	C128.434,39.725,127.358,40.8,126.034,40.8z"/>
<path fill="#FFFFFF" d="M147.634,33.6c-6.614,0-12-5.386-12-12c0-1.325,1.08-2.4,2.4-2.4c1.325,0,2.4,1.075,2.4,2.4
	c0,3.97,3.23,7.2,7.2,7.2c1.325,0,2.4,1.075,2.4,2.4C150.034,32.525,148.958,33.6,147.634,33.6z"/>
<path fill="#FFFFFF" d="M104.434,33.6c-1.32,0-2.4-1.075-2.4-2.4c0-1.325,1.075-2.4,2.4-2.4c3.97,0,7.2-3.23,7.2-7.2
	c0-1.325,1.08-2.4,2.4-2.4c1.325,0,2.4,1.075,2.4,2.4C116.434,28.214,111.048,33.6,104.434,33.6z"/>
<path fill="#FFFFFF" d="M147.634,14.4h-43.2c-1.32,0-2.4-1.075-2.4-2.4s1.075-2.4,2.4-2.4h43.2c1.325,0,2.4,1.075,2.4,2.4
	S148.958,14.4,147.634,14.4z"/>
</svg>
