<?xml version="1.0" encoding="utf-8"?>
<!-- Generator: Adobe Illustrator 17.0.0, SVG Export Plug-In . SVG Version: 6.00 Build 0)  -->
<!DOCTYPE svg PUBLIC "-//W3C//DTD SVG 1.1//EN" "http://www.w3.org/Graphics/SVG/1.1/DTD/svg11.dtd">
<svg version="1.1" id="Layer_1" xmlns="http://www.w3.org/2000/svg" xmlns:xlink="http://www.w3.org/1999/xlink" x="0px" y="0px"
	 width="252px" height="144px" viewBox="0 0 252 144" enable-background="new 0 0 252 144" xml:space="preserve">
<path fill="#FFFFFF" d="M154.8,115.2h-19.2c-1.21,0-2.232-0.902-2.381-2.102l-4.8-38.549C128.4,73.008,127.392,72,126.149,72h-0.787
	c-1.147,0-2.107,0.864-2.242,2.002l-4.334,39.062c-0.134,1.219-1.162,2.136-2.386,2.136H97.2c-1.32,0-2.4-1.08-2.4-2.4v-69
	c0-1.32,1.08-2.4,2.4-2.4c2.736,0,7.2-7.709,7.2-13.8V24c0-1.325,1.08-2.4,2.4-2.4c1.32,0,2.4,1.075,2.4,2.4v3.6
	c0,6.432-3.984,15.931-9.6,18.13v64.67h14.654l4.099-36.926c0.398-3.571,3.413-6.274,7.008-6.274h0.787
	c3.888,0,7.051,3.163,7.051,7.051l4.517,36.149H152.4V45.73c-5.616-2.198-9.6-11.702-9.6-18.13V24c0-1.325,1.08-2.4,2.4-2.4
	s2.4,1.075,2.4,2.4v3.6c0,6.091,4.464,13.8,7.2,13.8c1.32,0,2.4,1.08,2.4,2.4v69C157.2,114.12,156.12,115.2,154.8,115.2z"/>
<path fill="#FFFFFF" d="M135.6,33.6h-19.2c-1.32,0-2.4-1.075-2.4-2.4V4.8h-4.8V24c0,1.325-1.08,2.4-2.4,2.4s-2.4-1.075-2.4-2.4V2.4
	c0-1.325,1.08-2.4,2.4-2.4h9.6c1.32,0,2.4,1.075,2.4,2.4v26.4h14.4V2.4c0-1.325,1.08-2.4,2.4-2.4h9.6c1.32,0,2.4,1.075,2.4,2.4V24
	c0,1.325-1.08,2.4-2.4,2.4s-2.4-1.075-2.4-2.4V4.8H138v26.4C138,32.525,136.92,33.6,135.6,33.6z"/>
<path fill="#FFFFFF" d="M152.4,48H99.6c-1.32,0-2.4-1.075-2.4-2.4c0-1.325,1.08-2.4,2.4-2.4h52.8c1.32,0,2.4,1.075,2.4,2.4
	C154.8,46.925,153.72,48,152.4,48z"/>
<path fill="#FFFFFF" d="M126,60c-1.32,0-2.4-1.075-2.4-2.4V48c0-1.325,1.08-2.4,2.4-2.4c1.32,0,2.4,1.075,2.4,2.4v9.6
	C128.4,58.925,127.32,60,126,60z"/>
<path fill="#FFFFFF" d="M99.6,91.2h19.2V96H99.6V91.2z"/>
<path fill="#FFFFFF" d="M133.2,91.2h19.2V96h-19.2V91.2z"/>
</svg>
