<?xml version="1.0" encoding="utf-8"?>
<!-- Generator: Adobe Illustrator 17.0.0, SVG Export Plug-In . SVG Version: 6.00 Build 0)  -->
<!DOCTYPE svg PUBLIC "-//W3C//DTD SVG 1.1//EN" "http://www.w3.org/Graphics/SVG/1.1/DTD/svg11.dtd">
<svg version="1.1" id="Layer_1" xmlns="http://www.w3.org/2000/svg" xmlns:xlink="http://www.w3.org/1999/xlink" x="0px" y="0px"
	 width="359px" height="194px" viewBox="0 0 359 194" enable-background="new 0 0 359 194" xml:space="preserve">
<g>
	<path fill="#2A2A2A" d="M359,194H87V60h272V194z M91,190h264V64H91V190z"/>
	<text transform="matrix(1 0 0 1 122.1281 118.7745)"><tspan x="0" y="0" font-family="'Oswald-Regular'" font-size="45.3586">WARDROBE</tspan><tspan x="0" y="54.431" font-family="'Oswald-Regular'" font-size="45.3586">REPORT /</tspan></text>
	<g>
		<defs>
			<polygon id="SVGID_1_" points="107,47 107,154 0,154 0,0 154,0 154,47 			"/>
		</defs>
		<clipPath id="SVGID_2_">
			<use xlink:href="#SVGID_1_"  overflow="visible"/>
		</clipPath>
		<g clip-path="url(#SVGID_2_)">
			<line fill="none" stroke="#2A2A2A" stroke-miterlimit="10" x1="84.604" y1="-98.892" x2="-95.087" y2="80.799"/>
			<line fill="none" stroke="#2A2A2A" stroke-miterlimit="10" x1="91.604" y1="-91.892" x2="-88.087" y2="87.799"/>
			<line fill="none" stroke="#2A2A2A" stroke-miterlimit="10" x1="98.604" y1="-84.892" x2="-81.087" y2="94.799"/>
			<line fill="none" stroke="#2A2A2A" stroke-miterlimit="10" x1="105.604" y1="-77.892" x2="-74.087" y2="101.799"/>
			<line fill="none" stroke="#2A2A2A" stroke-miterlimit="10" x1="112.604" y1="-70.892" x2="-67.087" y2="108.799"/>
			<line fill="none" stroke="#2A2A2A" stroke-miterlimit="10" x1="119.604" y1="-63.892" x2="-60.087" y2="115.799"/>
			<line fill="none" stroke="#2A2A2A" stroke-miterlimit="10" x1="126.604" y1="-56.892" x2="-53.087" y2="122.799"/>
			<line fill="none" stroke="#2A2A2A" stroke-miterlimit="10" x1="133.604" y1="-49.892" x2="-46.087" y2="129.799"/>
			<line fill="none" stroke="#2A2A2A" stroke-miterlimit="10" x1="140.604" y1="-42.892" x2="-39.087" y2="136.799"/>
			<line fill="none" stroke="#2A2A2A" stroke-miterlimit="10" x1="147.604" y1="-35.892" x2="-32.087" y2="143.799"/>
			<line fill="none" stroke="#2A2A2A" stroke-miterlimit="10" x1="154.604" y1="-28.892" x2="-25.087" y2="150.799"/>
			<line fill="none" stroke="#2A2A2A" stroke-miterlimit="10" x1="161.604" y1="-21.892" x2="-18.087" y2="157.799"/>
			<line fill="none" stroke="#2A2A2A" stroke-miterlimit="10" x1="168.604" y1="-14.892" x2="-11.087" y2="164.799"/>
			<line fill="none" stroke="#2A2A2A" stroke-miterlimit="10" x1="175.604" y1="-7.892" x2="-4.087" y2="171.799"/>
			<line fill="none" stroke="#2A2A2A" stroke-miterlimit="10" x1="182.604" y1="-0.892" x2="2.913" y2="178.799"/>
			<line fill="none" stroke="#2A2A2A" stroke-miterlimit="10" x1="189.604" y1="6.108" x2="9.913" y2="185.799"/>
			<line fill="none" stroke="#2A2A2A" stroke-miterlimit="10" x1="196.604" y1="13.108" x2="16.913" y2="192.799"/>
			<line fill="none" stroke="#2A2A2A" stroke-miterlimit="10" x1="203.604" y1="20.108" x2="23.913" y2="199.799"/>
			<line fill="none" stroke="#2A2A2A" stroke-miterlimit="10" x1="210.604" y1="27.108" x2="30.913" y2="206.799"/>
			<line fill="none" stroke="#2A2A2A" stroke-miterlimit="10" x1="217.604" y1="34.108" x2="37.913" y2="213.799"/>
			<line fill="none" stroke="#2A2A2A" stroke-miterlimit="10" x1="224.604" y1="41.108" x2="44.913" y2="220.799"/>
			<line fill="none" stroke="#2A2A2A" stroke-miterlimit="10" x1="231.604" y1="48.108" x2="51.913" y2="227.799"/>
			<line fill="none" stroke="#2A2A2A" stroke-miterlimit="10" x1="238.604" y1="55.108" x2="58.913" y2="234.799"/>
			<line fill="none" stroke="#2A2A2A" stroke-miterlimit="10" x1="245.604" y1="62.108" x2="65.913" y2="241.799"/>
			<line fill="none" stroke="#2A2A2A" stroke-miterlimit="10" x1="252.604" y1="69.108" x2="72.913" y2="248.799"/>
			<line fill="none" stroke="#2A2A2A" stroke-miterlimit="10" x1="259.604" y1="76.108" x2="79.913" y2="255.799"/>
		</g>
	</g>
</g>
</svg>
