<?xml version="1.0" encoding="utf-8"?>
<!-- Generator: Adobe Illustrator 17.0.0, SVG Export Plug-In . SVG Version: 6.00 Build 0)  -->
<!DOCTYPE svg PUBLIC "-//W3C//DTD SVG 1.1//EN" "http://www.w3.org/Graphics/SVG/1.1/DTD/svg11.dtd">
<svg version="1.1" id="Layer_1" xmlns="http://www.w3.org/2000/svg" xmlns:xlink="http://www.w3.org/1999/xlink" x="0px" y="0px"
	 width="252px" height="144px" viewBox="0 0 252 144" enable-background="new 0 0 252 144" xml:space="preserve">
<path fill="#FFFFFF" d="M85.541,31.2c-0.797,0-1.574-0.398-2.035-1.123c-0.701-1.123-0.355-2.602,0.763-3.307l18.019-11.28
	c1.109-0.696,2.606-0.365,3.302,0.763c0.701,1.123,0.35,2.602-0.763,3.307L86.813,30.845C86.424,31.085,85.982,31.2,85.541,31.2z"/>
<path fill="#FFFFFF" d="M166.469,31.2c-0.461,0-0.902-0.125-1.301-0.394l-17.27-11.28c-1.099-0.725-1.416-2.213-0.701-3.322
	c0.734-1.109,2.222-1.411,3.322-0.696l17.256,11.28c1.109,0.725,1.421,2.213,0.701,3.322C168.01,30.816,167.246,31.2,166.469,31.2z"
	/>
<path fill="#FFFFFF" d="M77.318,88.8c-0.106,0-0.226-0.01-0.336-0.024c-1.31-0.187-2.227-1.402-2.045-2.712l8.232-57.6
	c0.187-1.31,1.43-2.222,2.707-2.035c1.301,0.187,2.232,1.406,2.045,2.717l-8.232,57.6C79.522,87.936,78.499,88.8,77.318,88.8z"/>
<path fill="#FFFFFF" d="M79.805,103.397c-0.01,0-0.014,0-0.024,0l-9-0.096c-1.315-0.01-2.376-1.085-2.376-2.4V86.4
	c0-0.648,0.264-1.277,0.72-1.723c0.475-0.451,1.08-0.706,1.742-0.677l13.2,0.398c0.734,0.024,1.445,0.394,1.877,0.994
	c0.442,0.6,0.571,1.373,0.355,2.098l-4.2,14.194C81.806,102.696,80.875,103.397,79.805,103.397z M73.205,98.52l4.814,0.058
	l2.803-9.48l-7.618-0.226C73.205,88.872,73.205,98.52,73.205,98.52z"/>
<path fill="#FFFFFF" d="M178.805,115.2h-14.736c-1.162,0-2.155-0.83-2.362-1.973l-6.902-38.328V112.8c0,1.32-1.08,2.4-2.4,2.4h-52.8
	c-1.32,0-2.4-1.08-2.4-2.4V74.899l-6.902,38.328c-0.202,1.138-1.2,1.973-2.362,1.973H73.205c-0.71,0-1.382-0.307-1.838-0.864
	c-0.461-0.542-0.658-1.267-0.523-1.958l2.136-12l4.723,0.845l-1.627,9.178h9.874l11.294-62.822c0.226-1.219,1.301-2.064,2.578-1.968
	c1.238,0.11,2.184,1.147,2.184,2.39v62.4h48V48c0-1.243,0.946-2.28,2.184-2.39c1.31-0.096,2.352,0.744,2.578,1.963l11.299,62.827
	h9.874l-1.632-9.178l4.718-0.845l2.136,12c0.125,0.701-0.072,1.416-0.523,1.968C180.187,114.893,179.515,115.2,178.805,115.2z"/>
<path fill="#FFFFFF" d="M174.691,88.8c-1.171,0-2.203-0.864-2.371-2.064l-8.232-57.6c-0.187-1.306,0.725-2.53,2.045-2.717
	c1.301-0.187,2.515,0.725,2.707,2.035l8.232,57.6c0.182,1.306-0.73,2.525-2.045,2.712C174.912,88.79,174.797,88.8,174.691,88.8z"/>
<path fill="#FFFFFF" d="M172.205,103.397c-1.07,0-2.002-0.701-2.299-1.714l-4.2-14.203c-0.216-0.71-0.096-1.493,0.355-2.093
	c0.432-0.6,1.114-0.97,1.877-0.994l13.2-0.398c0.658-0.034,1.277,0.226,1.742,0.682c0.461,0.451,0.71,1.075,0.71,1.718v14.501
	c0,1.315-1.07,2.39-2.376,2.4l-9,0.096C172.219,103.397,172.214,103.397,172.205,103.397z M171.187,89.102l2.803,9.48l4.814-0.058
	v-9.653C178.805,88.872,171.187,89.102,171.187,89.102z"/>
<path fill="#FFFFFF" d="M114.005,112.8c-1.32,0-2.4-1.08-2.4-2.4V48c0-0.37,0.086-0.734,0.254-1.07l21.6-43.349
	c0.59-1.195,2.045-1.67,3.216-1.08c1.19,0.59,1.67,2.03,1.094,3.216l-21.346,42.845V110.4
	C116.405,111.72,115.325,112.8,114.005,112.8z"/>
<path fill="#FFFFFF" d="M126.005,26.4c-0.917,0-1.795-0.528-2.194-1.426l-9.6-21.6c-0.533-1.21,0.01-2.63,1.219-3.168
	c1.214-0.533,2.626,0.005,3.168,1.219l9.6,21.6c0.533,1.21-0.01,2.63-1.219,3.168C126.662,26.333,126.331,26.4,126.005,26.4z"/>
<path fill="#FFFFFF" d="M114.005,50.4c-0.85,0-1.68-0.451-2.102-1.253c-0.634-1.162-0.202-2.616,0.946-3.259l25.738-14.035
	L147,15.029L134.712,4.8h-17.467l-12.269,10.229l8.549,17.107l6.25,5.784c0.97,0.902,1.032,2.419,0.125,3.394
	s-2.41,1.027-3.394,0.13l-6.562-6.082c-0.206-0.192-0.379-0.427-0.509-0.686l-9.6-19.2c-0.504-0.998-0.245-2.198,0.614-2.914
	l14.4-12C115.282,0.197,115.819,0,116.381,0h19.2c0.557,0,1.099,0.197,1.531,0.557l14.4,12c0.859,0.715,1.099,1.92,0.61,2.914
	l-9.6,19.2c-0.216,0.437-0.562,0.802-0.994,1.032l-26.4,14.4C114.787,50.304,114.394,50.4,114.005,50.4L114.005,50.4z"/>
<path fill="#FFFFFF" d="M130.805,57.6h-4.8c-1.32,0-2.4-1.075-2.4-2.4c0-1.325,1.08-2.4,2.4-2.4h4.8c1.32,0,2.4,1.075,2.4,2.4
	C133.205,56.525,132.125,57.6,130.805,57.6z"/>
<path fill="#FFFFFF" d="M130.805,72h-4.8c-1.32,0-2.4-1.08-2.4-2.4c0-1.32,1.08-2.4,2.4-2.4h4.8c1.32,0,2.4,1.08,2.4,2.4
	C133.205,70.92,132.125,72,130.805,72z"/>
<path fill="#FFFFFF" d="M130.805,86.4h-4.8c-1.32,0-2.4-1.08-2.4-2.4c0-1.32,1.08-2.4,2.4-2.4h4.8c1.32,0,2.4,1.08,2.4,2.4
	C133.205,85.32,132.125,86.4,130.805,86.4z"/>
<path fill="#FFFFFF" d="M130.805,100.8h-4.8c-1.32,0-2.4-1.08-2.4-2.4c0-1.32,1.08-2.4,2.4-2.4h4.8c1.32,0,2.4,1.08,2.4,2.4
	C133.205,99.72,132.125,100.8,130.805,100.8z"/>
</svg>
