<?xml version="1.0" encoding="utf-8"?>
<!-- Generator: Adobe Illustrator 17.0.0, SVG Export Plug-In . SVG Version: 6.00 Build 0)  -->
<!DOCTYPE svg PUBLIC "-//W3C//DTD SVG 1.1//EN" "http://www.w3.org/Graphics/SVG/1.1/DTD/svg11.dtd">
<svg version="1.1" id="Layer_1" xmlns="http://www.w3.org/2000/svg" xmlns:xlink="http://www.w3.org/1999/xlink" x="0px" y="0px"
	 width="252px" height="144px" viewBox="0 0 252 144" enable-background="new 0 0 252 144" xml:space="preserve">
<path fill="#FFFFFF" d="M178.91,115.2h-43.714c-1.104,0-2.083-0.763-2.333-1.843l-6.509-27.197c-0.101-0.408-0.605-0.403-0.701,0
	l-6.509,27.197c-0.274,1.085-1.238,1.843-2.342,1.843H73.075c-0.648,0-1.291-0.274-1.723-0.73c-0.461-0.485-0.696-1.114-0.677-1.771
	l4.603-110.4C75.341,1.013,76.387,0,77.678,0h96.638c1.286,0,2.342,1.013,2.4,2.299l4.603,110.4
	c0.029,0.658-0.216,1.291-0.667,1.771C180.197,114.926,179.568,115.2,178.91,115.2z M137.093,110.4H176.4L171.994,4.8H79.978
	l-4.402,105.6h39.312l6.086-25.358c0.571-2.371,2.635-4.027,5.021-4.027c2.39,0,4.459,1.666,5.011,4.032
	C131.006,85.046,137.093,110.4,137.093,110.4z"/>
<path fill="#FFFFFF" d="M171.571,14.4h-91.2c-1.32,0-2.4-1.075-2.4-2.4s1.075-2.4,2.4-2.4h91.2c1.32,0,2.4,1.075,2.4,2.4
	S172.896,14.4,171.571,14.4z"/>
<path fill="#FFFFFF" d="M125.971,50.4c-1.32,0-2.4-1.075-2.4-2.4V14.4c0-1.325,1.08-2.4,2.4-2.4s2.4,1.075,2.4,2.4V48
	C128.371,49.325,127.291,50.4,125.971,50.4z"/>
<path fill="#FFFFFF" d="M82.704,43.2h-7.133v-4.8h7.133c9.926,0,16.867-7.752,16.867-18.869V14.4h4.8v5.131
	C104.371,33.25,95.266,43.2,82.704,43.2z"/>
<path fill="#FFFFFF" d="M176.371,43.2h-7.133c-12.552,0-21.667-9.95-21.667-23.669V14.4h4.8v5.131
	c0,11.112,6.931,18.869,16.867,18.869h7.133V43.2z"/>
<path fill="#FFFFFF" d="M75.571,100.8h43.2v4.8h-43.2C75.571,105.6,75.571,100.8,75.571,100.8z"/>
<path fill="#FFFFFF" d="M133.171,100.8h43.2v4.8h-43.2C133.171,105.6,133.171,100.8,133.171,100.8z"/>
</svg>
