<?xml version="1.0" encoding="utf-8"?>
<!-- Generator: Adobe Illustrator 17.0.0, SVG Export Plug-In . SVG Version: 6.00 Build 0)  -->
<!DOCTYPE svg PUBLIC "-//W3C//DTD SVG 1.1//EN" "http://www.w3.org/Graphics/SVG/1.1/DTD/svg11.dtd">
<svg version="1.1" id="Layer_1" xmlns="http://www.w3.org/2000/svg" xmlns:xlink="http://www.w3.org/1999/xlink" x="0px" y="0px"
	 width="252px" height="144px" viewBox="0 0 252 144" enable-background="new 0 0 252 144" xml:space="preserve">
<path fill="#FFFFFF" d="M167.99,24h-81.6c-1.325,0-2.4-1.075-2.4-2.4V2.4c0-1.325,1.075-2.4,2.4-2.4h81.6c1.32,0,2.4,1.075,2.4,2.4
	v19.2C170.39,22.925,169.31,24,167.99,24z M88.79,19.2h76.8V4.8h-76.8C88.79,4.8,88.79,19.2,88.79,19.2z"/>
<path fill="#FFFFFF" d="M177.6,115.2H74.39c-0.701,0-1.358-0.302-1.814-0.83c-0.456-0.528-0.658-1.229-0.557-1.915l13.2-90
	c0.192-1.31,1.387-2.222,2.722-2.026c1.31,0.192,2.218,1.411,2.026,2.722L77.17,110.4h97.694l-11.645-87.283
	c-0.178-1.315,0.749-2.525,2.064-2.698c1.315-0.168,2.52,0.749,2.702,2.059l12.005,90c0.091,0.691-0.115,1.378-0.576,1.901
	C178.954,114.902,178.296,115.2,177.6,115.2z"/>
<path fill="#FFFFFF" d="M93.59,115.2c-0.062,0-0.13,0-0.192-0.005c-1.32-0.101-2.309-1.262-2.203-2.587l7.051-88.502
	c0.106-1.32,1.286-2.29,2.582-2.198c1.32,0.106,2.309,1.262,2.203,2.587l-7.051,88.502C95.885,114.25,94.834,115.2,93.59,115.2z"/>
<path fill="#FFFFFF" d="M115.19,115.2c-0.024,0-0.043,0-0.067,0c-1.325-0.034-2.371-1.133-2.338-2.467l2.4-91.2
	c0.038-1.32,1.291-2.362,2.462-2.333c1.325,0.034,2.371,1.138,2.338,2.462l-2.4,91.2C117.557,114.168,116.491,115.2,115.19,115.2z"
	/>
<path fill="#FFFFFF" d="M139.19,115.2c-1.286,0-2.342-1.008-2.395-2.304l-3.6-91.2c-0.053-1.32,0.979-2.438,2.299-2.491
	c1.291-0.058,2.443,0.979,2.496,2.304l3.6,91.2c0.053,1.325-0.979,2.438-2.304,2.496C139.258,115.2,139.219,115.2,139.19,115.2z"/>
<path fill="#FFFFFF" d="M158.395,115.2c-1.238,0-2.294-0.95-2.39-2.208l-7.051-88.502c-0.106-1.32,0.883-2.482,2.203-2.587
	c1.315-0.086,2.477,0.883,2.582,2.198l7.051,88.502c0.101,1.32-0.883,2.486-2.203,2.587C158.52,115.2,158.467,115.2,158.395,115.2z"
	/>
</svg>
