<?xml version="1.0" encoding="utf-8"?>
<!-- Generator: Adobe Illustrator 17.0.0, SVG Export Plug-In . SVG Version: 6.00 Build 0)  -->
<!DOCTYPE svg PUBLIC "-//W3C//DTD SVG 1.1//EN" "http://www.w3.org/Graphics/SVG/1.1/DTD/svg11.dtd">
<svg version="1.1" id="Layer_1" xmlns="http://www.w3.org/2000/svg" xmlns:xlink="http://www.w3.org/1999/xlink" x="0px" y="0px"
	 width="252px" height="144px" viewBox="0 0 252 144" enable-background="new 0 0 252 144" xml:space="preserve">
<path fill="#FFFFFF" d="M166.31,31.2c-0.49,0-0.974-0.144-1.406-0.446l-17.496-12.595c-1.09-0.778-1.32-2.275-0.552-3.35
	c0.778-1.075,2.28-1.315,3.355-0.547l17.496,12.59c1.08,0.778,1.32,2.275,0.552,3.35C167.784,30.859,167.054,31.2,166.31,31.2z"/>
<path fill="#FFFFFF" d="M125.851,50.4c-1.032,0-1.949-0.662-2.28-1.637l-12-36c-0.24-0.725-0.12-1.536,0.322-2.165
	c0.461-0.619,1.171-0.998,1.944-0.998h24c0.768,0,1.502,0.37,1.93,0.998c0.47,0.624,0.571,1.435,0.326,2.165l-12,36
	C127.8,49.738,126.883,50.4,125.851,50.4z M117.182,14.4l8.674,26.011L134.52,14.4C134.52,14.4,117.182,14.4,117.182,14.4z"/>
<path fill="#FFFFFF" d="M111.451,103.2c-0.192,0-0.384-0.019-0.581-0.067c-1.296-0.326-2.069-1.627-1.742-2.914l4.8-19.2
	c0.312-1.286,1.603-2.078,2.904-1.742c1.296,0.317,2.069,1.627,1.742,2.904l-4.8,19.2C113.515,102.48,112.531,103.2,111.451,103.2z"
	/>
<path fill="#FFFFFF" d="M140.251,103.2c-1.08,0-2.064-0.72-2.323-1.819l-4.8-19.2c-0.307-1.286,0.461-2.587,1.742-2.904
	c1.277-0.326,2.587,0.47,2.904,1.742l4.8,19.2c0.307,1.291-0.461,2.587-1.742,2.914C140.645,103.181,140.448,103.2,140.251,103.2z"
	/>
<path fill="#FFFFFF" d="M85.051,115.2h-9.6c-1.32,0-2.4-1.075-2.4-2.4v-9.6c0-1.32,1.08-2.4,2.4-2.4s2.4,1.08,2.4,2.4v7.2h4.8v-7.2
	c0-1.32,1.08-2.4,2.4-2.4s2.4,1.08,2.4,2.4v9.6C87.451,114.125,86.376,115.2,85.051,115.2z"/>
<path fill="#FFFFFF" d="M152.251,115.2h-52.8c-1.32,0-2.4-1.075-2.4-2.4V70.339l-7.258,33.374c-0.245,1.099-1.219,1.896-2.342,1.896
	H74.448c-0.701,0-1.358-0.302-1.814-0.835c-0.466-0.523-0.662-1.229-0.562-1.915l10.944-74.4c0.101-0.672,0.48-1.267,1.042-1.642
	l18.005-12.082c1.085-0.734,2.582-0.451,3.322,0.658c0.744,1.099,0.451,2.592-0.653,3.326L87.614,30.211L77.227,100.8h8.294
	l11.587-53.304c0.264-1.195,1.344-2.011,2.606-1.877c1.219,0.13,2.136,1.162,2.136,2.381v62.4h48V48c0-1.234,0.926-2.266,2.155-2.39
	c1.267-0.13,2.342,0.701,2.597,1.906l10.901,53.285h9.254l-10.896-71.232c-0.206-1.306,0.696-2.534,2.006-2.731
	c1.301-0.202,2.53,0.696,2.736,2.006l11.314,73.997c0.101,0.691-0.101,1.397-0.552,1.925c-0.456,0.533-1.109,0.835-1.814,0.835
	h-14.006c-1.133,0-2.117-0.806-2.352-1.91l-6.542-31.987V112.8C154.651,114.125,153.571,115.2,152.251,115.2z"/>
<path fill="#FFFFFF" d="M176.251,115.2h-9.6c-1.32,0-2.4-1.075-2.4-2.4v-9.6c0-1.32,1.08-2.4,2.4-2.4c1.32,0,2.4,1.08,2.4,2.4v7.2
	h4.8v-7.2c0-1.32,1.08-2.4,2.4-2.4c1.32,0,2.4,1.08,2.4,2.4v9.6C178.651,114.125,177.571,115.2,176.251,115.2z"/>
<path fill="#FFFFFF" d="M118.651,64.8c-1.32,0-2.4-1.075-2.4-2.4V28.21l-16.123-11.88c-0.518-0.389-0.878-0.984-0.955-1.632
	c-0.082-0.658,0.11-1.31,0.528-1.824l9.902-12C110.059,0.317,110.741,0,111.456,0h28.8c0.696,0,1.358,0.307,1.819,0.83l10.349,12
	c0.432,0.499,0.638,1.157,0.562,1.81c-0.067,0.658-0.403,1.258-0.917,1.661l-16.618,12.787V52.8c0,1.325-1.08,2.4-2.4,2.4
	c-1.32,0-2.4-1.075-2.4-2.4V27.902c0-0.744,0.346-1.45,0.936-1.906l15.533-11.952L139.152,4.8h-26.563l-7.57,9.178l15.062,11.093
	c0.614,0.456,0.974,1.171,0.974,1.934V62.4C121.051,63.725,119.976,64.8,118.651,64.8z"/>
</svg>
