<?xml version="1.0" encoding="utf-8"?>
<!-- Generator: Adobe Illustrator 17.0.0, SVG Export Plug-In . SVG Version: 6.00 Build 0)  -->
<!DOCTYPE svg PUBLIC "-//W3C//DTD SVG 1.1//EN" "http://www.w3.org/Graphics/SVG/1.1/DTD/svg11.dtd">
<svg version="1.1" id="Layer_1" xmlns="http://www.w3.org/2000/svg" xmlns:xlink="http://www.w3.org/1999/xlink" x="0px" y="0px"
	 width="252px" height="144px" viewBox="0 0 252 144" enable-background="new 0 0 252 144" xml:space="preserve">
<path fill="#FFFFFF" d="M125.942,34.651c-0.691,0-1.349-0.302-1.805-0.821l-16.8-19.2c-0.874-0.998-0.773-2.51,0.226-3.389
	c0.994-0.869,2.506-0.773,3.389,0.226l14.995,17.136l15-17.136c0.874-0.998,2.39-1.099,3.384-0.226
	c1.003,0.874,1.099,2.39,0.226,3.389l-16.8,19.2C127.291,34.349,126.634,34.651,125.942,34.651z"/>
<path fill="#FFFFFF" d="M140.496,113.851c-0.542,0-1.09-0.182-1.536-0.552l-14.544-12.077c-1.018-0.845-1.162-2.362-0.312-3.384
	c0.85-1.013,2.362-1.162,3.379-0.307l14.549,12.077c1.018,0.845,1.157,2.362,0.312,3.384
	C141.864,113.549,141.178,113.851,140.496,113.851z"/>
<path fill="#FFFFFF" d="M110.87,113.851c-0.706,0-1.402-0.307-1.877-0.902c-0.83-1.032-0.662-2.544,0.374-3.374l15.077-12.077
	c1.042-0.835,2.549-0.667,3.374,0.374c0.83,1.032,0.662,2.539-0.374,3.37l-15.077,12.082
	C111.926,113.678,111.394,113.851,110.87,113.851z"/>
<path fill="#FFFFFF" d="M125.942,101.851c-1.325,0-2.4-1.08-2.4-2.4v-67.2c0-1.325,1.075-2.4,2.4-2.4c1.325,0,2.4,1.075,2.4,2.4
	v67.2C128.342,100.771,127.267,101.851,125.942,101.851z"/>
<path fill="#FFFFFF" d="M176.074,113.851c-0.029,0-0.062,0-0.096,0H161.64c-1.162,0-2.15-0.83-2.362-1.973l-6.931-38.414v37.987
	c0,1.32-1.075,2.4-2.4,2.4h-48c-1.325,0-2.4-1.08-2.4-2.4V73.464l-6.931,38.414c-0.206,1.138-1.2,1.973-2.362,1.973H75.917
	c-0.696,0-1.354-0.302-1.805-0.821c-0.456-0.518-0.667-1.214-0.571-1.901l11.386-83.693c0.082-0.595,0.374-1.128,0.826-1.512
	l20.194-17.102c0.466-0.365,9.691-7.474,20.006-7.474s19.541,7.104,19.934,7.406l20.27,17.17c0.451,0.384,0.749,0.917,0.826,1.512
	l11.299,83.035c0.13,0.298,0.206,0.629,0.206,0.974C178.474,112.771,177.394,113.851,176.074,113.851z M163.642,109.051h9.586
	l-10.891-80.059l-19.498-16.507c-0.005,0-8.266-6.331-16.901-6.331c-8.683,0-16.896,6.326-16.978,6.394l-19.411,16.45
	l-10.891,80.059h9.586l11.338-62.827c0.221-1.224,1.358-2.059,2.578-1.963c1.238,0.115,2.189,1.142,2.189,2.39v62.4h43.2v-62.4
	c0-1.243,0.955-2.275,2.194-2.39c1.19-0.101,2.347,0.739,2.578,1.963C152.318,46.229,163.642,109.051,163.642,109.051z"/>
<path fill="#FFFFFF" d="M123.542,51.451h-4.8c-1.325,0-2.4-1.075-2.4-2.4c0-1.325,1.075-2.4,2.4-2.4h4.8c1.325,0,2.4,1.075,2.4,2.4
	C125.942,50.376,124.867,51.451,123.542,51.451z"/>
<path fill="#FFFFFF" d="M123.542,61.051h-4.8c-1.325,0-2.4-1.075-2.4-2.4c0-1.325,1.075-2.4,2.4-2.4h4.8c1.325,0,2.4,1.075,2.4,2.4
	C125.942,59.976,124.867,61.051,123.542,61.051z"/>
<path fill="#FFFFFF" d="M123.542,70.651h-4.8c-1.325,0-2.4-1.08-2.4-2.4c0-1.32,1.075-2.4,2.4-2.4h4.8c1.325,0,2.4,1.08,2.4,2.4
	C125.942,69.571,124.867,70.651,123.542,70.651z"/>
<path fill="#FFFFFF" d="M123.542,80.251h-4.8c-1.325,0-2.4-1.08-2.4-2.4s1.075-2.4,2.4-2.4h4.8c1.325,0,2.4,1.08,2.4,2.4
	S124.867,80.251,123.542,80.251z"/>
</svg>
