<?xml version="1.0" encoding="utf-8"?>
<!-- Generator: Adobe Illustrator 17.0.0, SVG Export Plug-In . SVG Version: 6.00 Build 0)  -->
<!DOCTYPE svg PUBLIC "-//W3C//DTD SVG 1.1//EN" "http://www.w3.org/Graphics/SVG/1.1/DTD/svg11.dtd">
<svg version="1.1" id="Layer_1" xmlns="http://www.w3.org/2000/svg" xmlns:xlink="http://www.w3.org/1999/xlink" x="0px" y="0px"
	 width="252px" height="144px" viewBox="0 0 252 144" enable-background="new 0 0 252 144" xml:space="preserve">
<path fill="#FFFFFF" d="M157.286,110.587H94.723c-1.325,0-2.4-1.08-2.4-2.4V54.302H78.85c-1.066,0-2.006-0.701-2.304-1.728
	l-8.05-27.624c-0.326-1.114,0.197-2.299,1.234-2.822l34.454-17.179c0.744-0.37,1.622-0.326,2.333,0.11
	c0.706,0.437,1.138,1.205,1.138,2.04c0,9.019,9.326,14.414,18.346,14.414c9.019,0,18.346-5.395,18.346-14.414
	c0-0.83,0.432-1.603,1.133-2.04c0.71-0.437,1.594-0.48,2.333-0.11l34.454,17.179c1.042,0.518,1.56,1.704,1.238,2.822l-8.054,27.624
	c-0.298,1.027-1.238,1.728-2.299,1.728h-13.474v53.89C159.686,109.512,158.611,110.587,157.286,110.587z M97.123,105.787h57.763
	V51.902c0-1.325,1.075-2.4,2.4-2.4h14.074l6.984-23.971l-29.578-14.75c-2.126,9.787-12.6,15.523-22.762,15.523
	s-20.635-5.736-22.757-15.528L73.67,25.526l6.984,23.971h14.074c1.325,0,2.4,1.075,2.4,2.4
	C97.128,51.898,97.123,105.787,97.123,105.787z"/>
<path fill="#FFFFFF" d="M145.603,9.413h-38.4c-1.325,0-2.4-1.075-2.4-2.4s1.075-2.4,2.4-2.4h38.4c1.32,0,2.4,1.075,2.4,2.4
	S146.923,9.413,145.603,9.413z"/>
</svg>
